<svg width="406" height="207" viewBox="0 0 406 207" fill="none" xmlns="http://www.w3.org/2000/svg">
<path d="M36.6064 117.034L37.6805 115.223L35.9865 113.972L38.0412 114.431L38.7077 112.433L38.9049 114.529L41.0102 114.545L39.0764 115.381L39.7112 117.388L38.319 115.808L36.6064 117.034Z" fill="black"/>
<path d="M97.6221 50.6725L99.2755 47.8521L96.6001 45.8683L99.8313 46.6149L100.848 43.4976L101.188 46.7847L104.493 46.8409L101.471 48.1191L102.497 51.2771L100.29 48.7825L97.6221 50.6725Z" fill="black"/>
<path d="M11.3483 80.8492L13.7732 76.7492L9.93906 73.9179L14.5924 74.953L16.0981 70.4373L16.5488 75.1799L21.3126 75.2207L16.9385 77.1051L18.3752 81.6565L15.2244 78.0803L11.3483 80.8492Z" fill="black"/>
<path d="M135.69 62.7022L137.257 60.0515L134.781 58.2163L137.788 58.8904L138.758 55.9681L139.053 59.0356L142.13 59.0608L139.307 60.2837L140.237 63.2216L138.196 60.9123L135.69 62.7022Z" fill="black"/>
<path d="M234.111 154.94L232.359 153.603L230.853 155.211L231.581 153.132L229.585 152.196L231.787 152.246L232.06 150.06L232.694 152.172L234.857 151.756L233.046 153.011L234.111 154.94Z" fill="black"/>
<path d="M355.677 93.4552L357.33 90.6348L354.655 88.651L357.886 89.3976L358.903 86.2803L359.243 89.5674L362.547 89.6236L359.526 90.9018L360.551 94.0599L358.344 91.5652L355.677 93.4552Z" fill="black"/>
<path d="M269.403 123.632L271.828 119.532L267.994 116.701L272.647 117.736L274.153 113.22L274.604 117.963L279.367 118.003L274.993 119.888L276.43 124.439L273.279 120.863L269.403 123.632Z" fill="black"/>
<path d="M355.143 142.149L356.71 139.498L354.234 137.663L357.241 138.337L358.211 135.415L358.506 138.482L361.583 138.507L358.76 139.73L359.69 142.668L357.649 140.359L355.143 142.149Z" fill="black"/>
<path d="M336.131 54.5452L337.699 51.8945L335.222 50.0593L338.229 50.7334L339.2 47.8111L339.495 50.8786L342.571 50.9039L339.748 52.1267L340.679 55.0646L338.637 52.7553L336.131 54.5452Z" fill="black"/>
<path d="M118.768 94.8773V94.8891C118.768 99.6362 117.395 103.87 115.253 106.879C113.11 109.89 110.289 111.572 107.338 111.574C105.465 111.567 103.611 110.906 102.011 109.634L102.011 109.634L102.003 109.628C101.42 109.171 100.871 108.652 100.363 108.075L100.083 105.277V104.758C100.083 94.2997 91.4587 85.8683 80.8691 85.8683C70.2795 85.8683 61.6554 94.2997 61.6554 104.758V105.271L61.3177 108.611C60.9779 109 60.6206 109.365 60.2478 109.704L60.2477 109.704L60.2402 109.711C58.5147 111.303 56.4283 112.144 54.3134 112.162C51.3533 112.16 48.5336 110.476 46.3942 107.466C44.2555 104.457 42.8867 100.223 42.8867 95.4775C42.8867 89.544 45.0225 84.4496 48.0936 81.5095L48.1008 81.5025L48.108 81.4955C48.1287 81.4751 48.1501 81.4542 48.1719 81.4327C48.3541 81.2539 48.5726 81.0394 48.7772 80.8189L48.7772 80.8189L48.7813 80.8145C54.9456 74.1203 67.0143 69.3994 81.1361 69.3994C96.3226 69.3994 109.093 74.8566 114.751 82.3132L114.751 82.3133L114.76 82.3243L114.791 82.3653C114.791 82.365 114.792 82.3657 114.794 82.3684C114.795 82.3698 114.796 82.3718 114.798 82.3746L114.824 82.4099C114.839 82.431 114.866 82.4672 114.9 82.5098C117.413 85.9083 118.804 90.3067 118.768 94.8773Z" stroke="black" stroke-width="3"/>
<path d="M81.1464 91.4063C74.0005 91.4063 68.2131 96.7148 68.2131 103.263C68.2131 109.812 62.7804 109.258 62.7804 109.258C62.444 109.306 62.1038 109.332 61.7617 109.334L63.1604 97.5536L66.8272 91.4063L72.6465 87.465L81.3413 86.2449L90.6023 88.3203L98.3944 95.6433L100.47 108.933C100.013 108.932 99.5587 108.888 99.112 108.804C99.112 108.804 94.0797 109.812 94.0797 103.263C94.0797 96.7148 88.2923 91.4063 81.1464 91.4063Z" fill="black"/>
<path d="M89.0642 108.198L89.1282 109.024L89.1167 109.024L89.2414 110.611L90.4442 125.93C90.4442 125.93 90.4443 125.931 90.4443 125.931C90.638 128.438 89.328 130.179 88.1157 130.539L86.7958 130.62H81.9511H80.4493H76.2432L74.7453 130.606L74.7383 130.606H74.7312H73.5906C72.9084 130.606 72.1768 130.222 71.5894 129.371C71.0031 128.52 70.642 127.294 70.7492 125.932L70.7494 125.93L71.8772 111.336L71.8802 111.331L71.9084 110.97L72.126 108.192L72.1306 108.133V108.075V107.653C72.1306 101.189 76.2291 96.5732 80.5952 96.5732C84.9613 96.5732 89.0598 101.189 89.0598 107.653V108.082V108.14L89.0642 108.198Z" stroke="black" stroke-width="3"/>
<path d="M76.2799 117.484C75.9747 117.477 75.6768 117.539 75.4511 117.658C75.2254 117.776 75.09 117.942 75.0744 118.118L73.9844 131.744H76.2938L77.3792 118.168C77.3892 117.994 77.2794 117.824 77.0736 117.696C76.8678 117.568 76.5826 117.492 76.2799 117.484Z" fill="black"/>
<path d="M85.2747 117.484C85.58 117.477 85.8779 117.539 86.1036 117.658C86.3293 117.776 86.4647 117.942 86.4803 118.118L87.5703 131.744H85.2609L84.1755 118.168C84.1654 117.994 84.2753 117.824 84.4811 117.696C84.6869 117.568 84.9721 117.492 85.2747 117.484Z" fill="black"/>
<path d="M80.7668 113.409C80.5887 113.409 80.4124 113.426 80.2479 113.458C80.0834 113.491 79.9341 113.539 79.8084 113.6C79.6827 113.66 79.5832 113.732 79.5155 113.811C79.4478 113.891 79.4134 113.975 79.4141 114.061V131.744H82.1304V114.061C82.129 113.888 81.9847 113.722 81.7292 113.6C81.4736 113.477 81.1275 113.409 80.7668 113.409Z" fill="black"/>
<path d="M48.7522 96.6078C48.7382 85.4664 59.7729 78.3117 72.6224 76.0434" stroke="black" stroke-width="3" stroke-linecap="round"/>
<path d="M208.987 65.105C209.357 66.1682 208.834 67.3444 207.82 67.732C203.364 69.4348 201.461 72.4245 200.61 74.946C199.279 74.7179 197.541 74.7179 196.238 74.7179C196.238 74.7179 196.515 73.8201 196.673 73.3518C197.857 69.8438 200.779 66.0606 206.481 63.8816C207.495 63.494 208.617 64.0417 208.987 65.105Z" fill="black"/>
<path d="M227.183 107.953C227.183 124.132 214.191 137.223 198.193 137.223C182.195 137.223 169.203 124.132 169.203 107.953C169.203 91.7753 182.195 78.6838 198.193 78.6838C214.191 78.6838 227.183 91.7753 227.183 107.953Z" stroke="black" stroke-width="3"/>
<path d="M191.966 75.0419C191.966 75.0419 196.67 56.0631 180.526 57.0834C180.526 57.0834 172.523 71.4768 191.966 75.0419Z" fill="black"/>
<path d="M204.304 97.4873C204.304 97.4873 208.31 101.787 204.78 105.157" stroke="black" stroke-width="3" stroke-miterlimit="10" stroke-linecap="round"/>
<path d="M211.847 105.26C211.847 105.26 215.853 109.56 212.323 112.929" stroke="black" stroke-width="3" stroke-miterlimit="10" stroke-linecap="round"/>
<path d="M207.092 86.9241C207.092 86.9241 212.424 89.3829 210.434 93.8431" stroke="black" stroke-width="3" stroke-miterlimit="10" stroke-linecap="round"/>
<path d="M219.221 109.012C219.221 109.012 223.227 113.313 219.701 116.682" stroke="black" stroke-width="3" stroke-miterlimit="10" stroke-linecap="round"/>
<path d="M211.554 119.52C211.554 119.52 214.152 124.79 209.807 126.998" stroke="black" stroke-width="3" stroke-miterlimit="10" stroke-linecap="round"/>
<path d="M204.304 110.603C204.304 110.603 208.31 114.902 204.78 118.268" stroke="black" stroke-width="3" stroke-miterlimit="10" stroke-linecap="round"/>
<path d="M216.926 96.03C216.926 96.03 221.895 99.1572 219.34 103.32" stroke="black" stroke-width="3" stroke-miterlimit="10" stroke-linecap="round"/>
<path d="M175.29 103.441C176.64 98.313 182.091 87.5183 193.102 85.3594" stroke="black" stroke-width="3" stroke-linecap="round"/>
<path fill-rule="evenodd" clip-rule="evenodd" d="M288.461 102.75C290.539 121.496 302.827 134.848 317.666 134.848C332.506 134.848 344.792 121.505 346.869 102.75H288.461Z" stroke="black" stroke-width="3" stroke-miterlimit="10"/>
<path d="M317.841 127.022C307.784 127.022 299.35 119.759 297.117 109.299" stroke="black" stroke-width="3" stroke-miterlimit="10" stroke-linecap="round"/>
<path d="M347.17 87.0571H286.547C286.547 90.4572 286.825 93.7653 287.351 96.9382H346.367C346.892 93.7657 347.17 90.4576 347.17 87.0571Z" stroke="black" stroke-width="3" stroke-miterlimit="10"/>
<path fill-rule="evenodd" clip-rule="evenodd" d="M347.944 79.8885L361.851 58.4656C362.324 57.7584 362.586 56.9301 362.605 56.0785C362.624 55.2269 362.399 54.3877 361.957 53.6602C361.667 53.1247 361.2 52.7072 360.636 52.4797C360.073 52.2522 359.447 52.2289 358.868 52.4138C358.243 52.5851 357.664 52.8942 357.173 53.3185C356.683 53.7427 356.293 54.2715 356.032 54.8661L345.949 76.9893C346.799 77.8055 347.488 78.7786 347.944 79.8885Z" fill="black"/>
<path d="M305.708 84.2263C305.708 79.9932 302.277 76.5615 298.044 76.5615C293.811 76.5615 290.379 79.9932 290.379 84.2263" stroke="black" stroke-width="3" stroke-linecap="round"/>
<path d="M316.564 82.9491C316.564 78.0104 312.561 74.0068 307.622 74.0068C306.447 74.0068 305.325 74.2335 304.297 74.6456" stroke="black" stroke-width="3" stroke-linecap="round"/>
<path d="M322.695 83.9074C324.191 81.0595 327.177 79.1169 330.617 79.1169C334.057 79.1169 337.044 81.0595 338.539 83.9074" stroke="black" stroke-width="3" stroke-linecap="round"/>
<path d="M324.376 76.3046C323.136 75.6531 321.723 75.2844 320.225 75.2844C319.402 75.2844 318.605 75.3956 317.848 75.6038" stroke="black" stroke-width="3" stroke-linecap="round"/>
<path d="M337.004 76.5615C341.285 76.5615 344.863 79.5697 345.74 83.5876" stroke="black" stroke-width="3" stroke-linecap="round"/>
</svg>
