<svg width="86" height="148" viewBox="0 0 86 148" fill="none" xmlns="http://www.w3.org/2000/svg">
<path d="M68.6532 21.9765C69.1444 23.2612 68.9891 24.9693 67.8463 25.8507C67.7912 25.8905 67.8313 25.9801 67.8964 25.9702C68.8938 25.8357 72.277 25.3626 72.3672 25.3427C73.7105 24.5161 73.916 22.6786 73.3947 21.3142C73.3947 21.3142 68.6533 21.9865 68.6482 21.9765H68.6532Z" fill="black"/>
<path d="M70.1237 14.2633C70.6148 15.553 70.4595 17.261 69.3117 18.1474C69.2616 18.1872 69.2866 18.2719 69.3518 18.2619C70.3241 18.1324 73.7474 17.6544 73.8426 17.6345C75.1859 16.8178 74.8701 13.606 74.8701 13.606C74.8701 13.606 70.4494 14.2234 70.1237 14.2682V14.2633Z" fill="black"/>
<path d="M71.6002 6.55462C72.0914 7.83937 71.9361 9.54738 70.7933 10.4288C70.7432 10.4686 70.7783 10.5533 70.8434 10.5433L75.3142 9.92085C76.6575 9.09424 76.863 7.25675 76.3417 5.89233C76.3417 5.89233 71.6002 6.56458 71.5952 6.55462H71.6002Z" fill="black"/>
<path d="M67.5988 3.99015C66.6365 2.56597 65.2732 1.22147 63.6994 0.489469C63.0077 0.165793 62.2709 -0.0184535 61.5041 0.00146505C60.4565 0.0263632 59.3739 0.265385 58.3364 0.409795C57.5896 0.514367 56.8428 0.618939 56.101 0.73347C56.0308 0.74343 55.9607 0.758369 55.8855 0.773307C55.675 0.793226 55.4444 0.813145 55.264 0.87788C55.2339 0.87788 55.2089 0.882859 55.1788 0.887839C55.1988 0.887839 55.2189 0.887839 55.2389 0.887839C55.2239 0.892819 55.2089 0.897798 55.1938 0.902778C53.2842 1.81903 52.4071 4.1495 52.0713 6.09653C51.8457 7.40119 51.8708 8.73075 52.0913 10.0354C52.3068 11.3251 52.7128 12.5501 53.0837 13.8C53.174 14.0988 53.2642 14.4723 53.3193 14.8607C53.0737 14.7412 52.8231 14.6366 52.5625 14.5519C51.9109 14.3428 51.3144 14.3876 50.6428 14.4723C49.1743 14.6565 47.7057 14.8657 46.2422 15.0798C45.7209 15.1545 45.1195 15.1844 44.6183 15.3736C44.1221 15.5628 43.8063 16.006 43.6108 16.4791C43.1898 17.4949 43.2399 18.695 43.4003 19.7606C43.5908 21.0155 44.0168 22.2405 44.6985 23.3161C44.7235 23.3559 51.0037 22.3998 51.0237 22.4347C50.2118 21.1499 49.7507 19.6461 49.6404 18.1373C49.6153 17.8136 49.6204 17.4899 49.6204 17.1712C50.8584 17.6443 52.3971 17.3455 53.6752 17.216C54.9532 17.0866 56.1712 16.9322 57.4142 16.738C58.3765 16.5836 59.1484 16.2948 59.5995 15.3935C59.805 14.8358 59.7548 14.1934 59.6346 13.6208C59.3639 12.331 58.8527 11.0961 58.582 9.80137C58.0808 7.41115 58.1861 4.8566 59.2336 2.62573C59.3589 2.73528 59.4792 2.83985 59.5945 2.95438C60.9076 4.19929 62.0554 5.7131 62.2809 7.55058C62.5315 9.58227 61.8599 11.6687 61.4489 13.6407C61.0179 15.7172 60.5919 17.7987 60.2611 19.9001C59.7849 22.8779 59.5343 26.7222 57.0684 28.8385C56.1161 29.6552 55.0134 29.7946 53.8255 30.0734C53.3043 30.1979 52.7329 30.3125 52.2668 30.5814C51.7154 30.9001 51.2844 31.8213 51.0739 32.374C47.7508 41.2079 46.4276 52.5465 44.9441 62.6303C42.7888 77.3002 41.3504 92.0449 39.5009 106.75C39.3756 107.82 39.2503 108.891 39.125 109.967C39.2152 109.952 45.4503 109.085 45.4503 109.085C46.7935 97.3333 48.247 85.5913 49.7206 73.8494C51.139 62.5157 52.4321 51.1273 54.9983 39.9729C55.4595 37.9811 55.9907 36.0092 56.6473 34.0721C56.9531 33.1708 57.2839 32.2794 57.6447 31.398C57.8703 30.8503 58.0407 30.0187 58.592 29.7C59.5794 29.1273 60.8625 29.0775 61.9451 28.7738C64.8472 27.9571 65.6992 24.2025 66.1603 21.6728C66.5112 19.7407 66.7768 17.7937 67.1477 15.8666C67.5487 13.8 68.0298 11.7434 68.4258 9.67688C68.8017 7.69001 68.7616 5.73302 67.5888 4.00509L67.5988 3.99015ZM58.146 14.8059C57.2738 14.9752 56.3867 15.0897 55.4444 15.2093C55.274 15.2292 55.1086 15.2541 54.9382 15.274C54.9131 14.6914 54.7979 14.049 54.5924 13.3518C54.5272 13.1327 54.4621 12.9136 54.3969 12.6945C54.0912 11.6887 53.8055 10.7375 53.6401 9.7715C53.4396 8.58635 53.4346 7.44103 53.62 6.35547C53.7854 5.40436 54.3217 3.13365 55.7903 2.35185C55.8454 2.34687 55.9206 2.33691 55.9757 2.33691C56.111 2.32695 56.2464 2.31201 56.3616 2.29707C56.8278 2.22736 57.2889 2.15764 57.755 2.09291C56.4168 5.04085 56.6223 8.05352 57.0533 10.1151C57.2037 10.8371 57.4142 11.5144 57.6197 12.1717C57.8101 12.7842 57.9906 13.3618 58.1109 13.9394C58.2011 14.3727 58.1861 14.6715 58.151 14.8109L58.146 14.8059Z" fill="black"/>
<path d="M85.167 119.433C84.1696 117.227 81.7036 115.255 80.0797 114.005C77.6689 112.153 75.0325 110.579 72.8121 108.498C70.9426 106.75 69.4741 104.614 68.9829 102.079C68.9027 101.676 68.8576 101.272 68.8375 100.864C68.7323 98.5484 69.6344 96.3075 70.6719 94.231C75.0776 85.4469 82.3502 77.8978 84.3951 68.2971C84.7309 66.7136 84.8312 64.8263 83.6433 63.7158C82.8965 63.0137 81.8189 62.8096 80.7964 62.695C72.7169 61.7937 64.2815 64.9857 58.8484 70.9961C57.1493 72.8784 55.7108 75.0694 55.0943 77.5244C54.4778 79.9793 54.7635 82.733 56.2471 84.7946C56.608 85.2976 57.0691 85.7756 57.6705 85.9549C58.1667 86.0993 58.703 86.0246 59.2143 85.9449L63.7352 85.2478C61.575 83.2908 60.8181 80.1088 61.3294 77.2455C61.996 73.5108 64.5572 70.284 67.2838 67.7991C69.0731 66.1658 71.2484 64.9906 73.6291 64.4827C74.7217 64.2487 76.0099 64.1341 76.9972 64.7367C77.9495 65.3193 78.4257 66.4795 78.4508 67.59C78.4808 68.7005 78.13 69.781 77.7541 70.8317C76.0299 75.6719 73.7293 80.313 70.9125 84.6153C68.3513 88.5244 65.329 92.2143 63.645 96.5665C62.8681 98.5732 62.3819 100.759 62.7278 102.886C63.3292 106.59 66.2813 109.459 69.3237 111.68C72.772 114.194 76.8318 116.455 78.8667 120.374C79.3178 121.245 79.9694 122.844 78.6963 123.327C78.4106 123.437 78.1049 123.451 77.7992 123.456C74.5664 123.521 71.3035 122.963 68.0857 122.695C64.4519 122.391 60.6177 121.853 56.9688 122.017C52.473 122.222 49.6562 125.747 47.7816 129.447C46.3532 132.27 45.5011 135.338 44.3383 138.271C43.6817 139.934 43.0251 141.622 42.0127 143.111C41.1857 144.331 39.241 146.597 37.597 145.392C36.9805 144.944 36.5796 144.187 36.3039 143.499C35.1361 140.581 34.3341 137.519 33.5222 134.491C32.6401 131.195 31.778 127.853 30.2192 124.791C29.5726 123.521 28.7958 122.276 27.6731 121.39C25.4527 119.637 22.3652 119.597 19.5284 119.637L13.3284 119.722C12.2959 119.737 8.27618 119.946 7.40908 119.747C6.99809 119.652 6.59713 119.403 6.43674 119.015C6.06585 118.123 6.97303 117.107 7.60456 116.595C12.737 112.402 19.1424 110.031 24.4302 106.023C24.9314 105.644 25.3875 105.201 25.7484 104.688C28.0941 101.392 25.4226 98.4189 23.092 96.1482C21.8289 94.9232 20.606 93.6534 19.4432 92.3288C18.8668 91.6715 18.3505 90.9793 17.7942 90.3071C17.2128 89.595 16.6514 88.858 16.2555 88.0264C15.7342 86.9309 15.2881 85.0336 16.3106 84.0726C17.1326 83.3007 18.546 83.5995 19.4983 83.9132C21.8891 84.7 24.1445 85.8852 26.1494 87.399C27.4124 88.355 28.6003 89.4705 29.3371 90.8648C30.0789 92.2591 30.3245 93.9771 29.703 95.4311L36.0132 94.5746C37.0858 91.786 35.1511 88.7186 32.8455 86.8064C32.5398 86.5524 32.2241 86.3034 31.8983 86.0694C31.5725 85.8354 31.2417 85.6113 30.9009 85.3972C30.56 85.183 30.2142 84.9789 29.8583 84.7896C29.5025 84.6004 29.1466 84.4162 28.7807 84.2518C28.4148 84.0875 28.0439 83.9282 27.668 83.7788C27.2921 83.6344 26.9112 83.4999 26.5303 83.3754C26.1494 83.2509 25.7584 83.1414 25.3675 83.0468C24.9765 82.9472 24.5856 82.8625 24.1896 82.7878C21.9442 82.3646 19.6537 82.3795 17.3882 82.6484C16.5462 82.748 15.7041 82.8874 14.8721 83.0617C13.2933 83.3904 11.4138 83.7539 10.0856 84.7149C8.45161 85.8901 9.15831 87.9965 10.0304 89.336C11.6594 91.8358 13.2983 93.3347 15.3984 95.4909C16.5311 96.6511 18.3204 98.4239 19.1875 99.6986C20.0546 100.973 20.5709 102.587 20.1499 104.071C19.7389 105.53 18.5159 106.605 17.288 107.502C14.7017 109.399 11.8749 110.923 9.08314 112.491C7.31386 113.482 5.51953 114.443 3.83546 115.574C2.92325 116.186 1.96093 116.754 1.18906 117.546C0.407175 118.342 -0.670439 120.06 0.552516 120.977C0.853243 121.201 1.23918 121.295 1.61008 121.35C2.78793 121.534 3.96075 121.425 5.14361 121.41C6.3816 121.39 7.61959 121.345 8.85257 121.285C11.3235 121.166 13.8045 121.051 16.2755 121.3C18.0097 121.475 19.7639 121.928 21.2525 122.844C22.8414 123.82 23.8137 125.259 24.4954 126.957C26.4802 131.912 27.3172 134.611 29.8132 142.26C30.4297 144.152 31.1915 145.695 32.9257 146.691C36.2037 148.584 41.5666 147.996 44.5338 145.949C47.7917 143.704 49.2001 139.79 50.8691 136.294C51.7362 134.476 52.5081 132.619 53.3651 130.801C54.1771 129.073 55.0392 127.316 56.2371 125.817C57.2696 124.522 58.1968 123.969 59.8658 123.86C67.2286 123.382 78.962 125.493 82.3051 124.711C83.7636 124.373 85.3173 123.481 85.5629 121.873C85.6882 121.051 85.5178 120.235 85.162 119.448L85.167 119.433ZM63.7101 69.2881C62.7929 70.3786 61.4797 72.0517 60.6477 74.0187C59.3596 77.0513 59.094 81.0101 60.8582 84.1323C60.6979 84.1572 58.0164 84.5257 58.0013 84.5307C56.9287 83.3505 56.3624 81.7172 56.3874 79.8648C56.4325 76.7027 58.1818 73.466 61.585 70.2491C62.6877 69.2034 63.9056 68.327 65.2639 67.6C64.7376 68.1278 64.2214 68.6905 63.7151 69.293L63.7101 69.2881ZM17.6188 95.6502C16.2906 94.3455 14.5113 92.3836 13.6542 91.4225C12.757 90.4166 11.7496 89.2364 11.1381 87.9517C10.8424 87.3292 10.5717 86.4877 10.9777 86.0047C11.2233 85.7109 11.6594 85.4619 12.3059 85.2428C12.8723 85.0486 13.4838 84.934 14.0602 84.8394C14.0151 85.0386 13.99 85.2378 13.9749 85.427C13.8446 87.1799 14.7468 88.7684 15.5437 89.9585C16.4559 91.3129 17.5386 92.5081 18.4858 93.5239C18.7816 93.8426 19.0773 94.1663 19.373 94.485C20.0296 95.202 20.7062 95.939 21.4129 96.6511C21.5633 96.8005 21.7137 96.9499 21.864 97.1043C22.5958 97.8313 23.513 98.7575 23.7987 99.375L21.3377 99.7982C20.2902 98.0803 18.8217 96.8403 17.6137 95.6552L17.6188 95.6502Z" fill="black"/>
</svg>
