<svg width="31" height="31" viewBox="0 0 31 31" fill="none" xmlns="http://www.w3.org/2000/svg">
<rect x="1.66406" y="1.57251" width="28" height="28" rx="7" stroke="currentColor" strokeWidth="2"/>
<path d="M9.66425 10.4989C9.07596 10.4989 8.59226 10.3149 8.21313 9.94704C7.84709 9.56502 7.66406 9.0981 7.66406 8.54629C7.66406 7.98033 7.84709 7.51342 8.21313 7.14554C8.59226 6.76352 9.07596 6.57251 9.66425 6.57251C10.2395 6.57251 10.7101 6.76352 11.0762 7.14554C11.4553 7.51342 11.6448 7.98033 11.6448 8.54629C11.6448 9.0981 11.4553 9.56502 11.0762 9.94704C10.7101 10.3149 10.2395 10.4989 9.66425 10.4989ZM11.3311 11.7298V23.5725H7.97782V11.7298H11.3311Z" fill="currentColor"/>
<path d="M19.448 11.6025C20.7291 11.6025 21.7488 12.0552 22.5071 12.9608C23.2784 13.8522 23.6641 15.0831 23.6641 16.6537V23.5725H20.3304V17.1418C20.3304 16.3495 20.1408 15.734 19.7617 15.2954C19.3826 14.8567 18.8728 14.6374 18.2322 14.6374C17.5916 14.6374 17.0817 14.8567 16.7026 15.2954C16.3235 15.734 16.1339 16.3495 16.1339 17.1418V23.5725H12.7807V11.7298H16.1339V13.3004C16.4738 12.7768 16.9314 12.3665 17.5066 12.0694C18.0818 11.7581 18.7289 11.6025 19.448 11.6025Z" fill="currentColor"/>
</svg>
