<svg width="104" height="107" viewBox="0 0 104 107" fill="none" xmlns="http://www.w3.org/2000/svg">
<path d="M100.175 22.6927C98.1296 22.3292 96.1348 22.857 94.0949 22.867C92.486 22.8769 90.6816 22.4686 90.005 20.8951C89.7143 20.2128 89.6942 19.446 89.7995 18.719C90.035 17.1006 90.837 15.6415 91.659 14.2472C92.5311 12.7683 93.4383 11.3142 93.9996 9.68093C94.5159 8.18206 94.8567 6.52384 94.5159 4.9453C94.145 3.22235 92.902 1.96251 91.3282 1.22552C90 0.598089 88.5264 0.304291 87.0679 0.139963C84.2561 -0.173753 81.4894 0.0802056 78.7027 0.503474C76.0062 0.911804 73.2244 1.51932 71.2296 3.50619C69.335 5.38849 68.1923 7.88329 67.3703 10.3831C65.4607 16.1793 65.0647 22.4288 64.8492 28.484C64.759 30.934 64.7389 33.384 64.6487 35.8339C64.4583 40.699 64.2427 45.5542 64.1275 50.4193C63.8769 61.0956 63.8869 71.8317 62.8544 82.4731C62.4183 86.9498 61.8018 91.4763 60.4486 95.7837C59.2908 99.4586 57.6217 102.461 55.4565 104.224C54.0882 105.335 52.2087 105.613 50.5346 105.046L50.5045 105.036C48.1188 104.229 46.2042 102.511 44.8559 100.42C41.3775 95.0268 41.4777 88.3142 42.024 82.1694C42.4852 77.0105 43.227 71.8864 43.1468 66.6927C43.1067 64.173 42.8009 61.6583 42.1243 59.2282C41.3374 56.3849 40.1245 53.7058 38.0144 51.6094C35.6988 49.3138 32.6213 47.5859 29.5439 46.5302C25.3087 45.0811 20.6925 44.618 16.2818 45.2305C11.3399 45.9177 5.77145 47.5161 2.45344 51.475C0.0927312 54.2884 -0.834509 58.4763 0.884645 61.7181C2.46847 64.7008 5.9168 66.3093 9.28995 66.6977C12.8786 67.111 16.5224 66.9865 20.086 66.4188C23.1284 65.9358 26.5416 65.2934 28.8021 63.0327C29.178 62.6542 29.5138 62.2359 29.7795 61.7728C30.3057 60.8616 30.5413 59.766 30.431 58.7253L23.9704 59.2183C24.1509 60.2989 24.0256 61.4292 23.5845 62.4301C22.8778 64.0186 21.3892 65.1839 19.7001 65.5872C17.7003 66.0653 15.2393 65.8711 13.2595 65.3631C10.8838 64.7556 8.69853 63.2767 7.46053 61.1753C5.53588 57.9086 6.22755 53.4817 8.69853 50.6035C11.1645 47.7203 15.1241 46.336 18.9333 46.5003C24.7724 46.7543 30.8821 50.24 33.8443 55.2645C35.398 57.9037 36.2802 61.1006 36.616 64.1282C36.9919 67.5592 36.8265 71.0499 36.5608 74.4858C36.0947 80.4564 34.9369 86.4618 35.6085 92.4623C36.0546 96.4709 37.4881 100.743 40.4653 103.607C43.0164 106.062 46.6202 106.809 50.0735 106.744C54.2335 106.664 58.9299 106.106 62.0875 103.163C63.7165 101.64 64.8943 99.6728 65.7714 97.6461C67.2099 94.3097 67.9567 90.6945 68.508 87.1241C69.1346 83.0607 69.4603 78.9525 69.6909 74.8493C70.2172 65.4727 70.2823 56.0811 70.5329 46.6945C70.6382 42.7008 70.8437 38.7171 70.989 34.7285C71.0642 32.6619 71.0893 30.5904 71.1544 28.5238C71.3198 23.3052 71.6306 18.0318 72.7733 12.9227C73.6204 9.12321 74.7732 4.1137 78.442 1.99238C79.5798 1.33507 80.908 1.07115 82.2111 1.24544C85.0931 1.62389 88.0302 3.44644 88.3059 6.53878C88.4663 8.34141 87.9149 10.2237 87.1631 11.852C86.3361 13.6497 85.1432 15.2482 84.2962 17.0309C83.6797 18.3305 83.1534 19.939 83.5494 21.3781C83.795 22.2694 84.4766 22.9865 85.2735 23.4347C86.306 24.0173 87.6092 24.0472 88.752 24.0073C89.4336 23.9824 90.1102 23.9276 90.7869 23.8579C91.6189 23.7683 92.8218 23.6836 93.6588 23.7534C94.6913 23.838 95.6837 24.1916 96.3102 25.0182C97.0019 25.9295 97.2675 27.0947 97.2876 28.2201C97.3277 30.4659 96.4856 33.0702 94.7314 34.5791C98.3602 34.0712 101.057 33.6977 101.057 33.6977C103.999 31.163 105.267 23.589 100.17 22.6827L100.175 22.6927ZM6.69368 50.6384C5.9168 51.7239 5.37048 53.0236 5.05973 54.5026C4.41317 57.6049 5.02966 60.6723 6.74881 62.9132C7.37032 63.7248 8.08705 64.427 8.88898 65.0245C8.11712 64.9349 7.46053 64.8104 6.85407 64.6361C5.05472 64.1182 3.56111 62.9978 2.52862 61.3894C1.51617 59.8208 1.30566 57.4754 1.97728 55.2744C2.43339 53.7805 3.42578 52.4261 5.01964 51.1363C5.80654 50.4989 6.67864 49.9462 7.63596 49.4831C7.2801 49.8665 6.96935 50.2549 6.69368 50.6434V50.6384ZM87.4789 22.5184C86.9927 22.4836 86.5266 22.3591 86.0955 22.1101C85.6845 21.8711 85.2485 21.5275 85.0781 21.0743C85.068 21.0444 85.058 21.0146 85.048 20.9797C84.8275 20.183 85.048 19.0775 85.6996 17.7031C86.0805 16.9014 86.5416 16.1345 87.0278 15.3228C87.5641 14.4315 88.1154 13.5053 88.5765 12.5094C89.589 10.3133 90.02 8.26174 89.8546 6.41429C89.6892 4.56685 88.7921 2.90864 87.3436 1.73842C88.772 1.85793 89.6892 2.09696 90.5914 2.52023C91.4836 2.93851 92.6865 3.84481 92.9922 5.27396C93.2177 6.32964 93.0674 7.6094 92.5211 9.18297C92.065 10.5026 91.3382 11.7276 90.5713 13.0272L90.3107 13.4654C89.4186 14.9793 88.5264 16.6126 88.2558 18.4998C88.0954 19.6252 88.2006 20.6361 88.5715 21.5026C88.7119 21.8312 88.8973 22.1449 89.1279 22.4387C88.6617 22.4935 88.1856 22.5333 87.7195 22.5284C87.6393 22.5284 87.5591 22.5234 87.4789 22.5184Z" fill="black"/>
<path d="M56.3046 67.7483C56.3046 67.7483 59.4772 67.2703 60.64 67.1258C60.7102 67.1159 60.7152 67.0213 60.6451 67.0014C59.6677 66.6976 58.9961 65.7515 58.7805 64.7655C58.4698 63.3563 59.0412 61.9171 59.5674 60.6224C59.5875 60.5776 59.5474 60.5278 59.4973 60.5328C58.7755 60.6424 54.8661 61.1752 54.8661 61.1752C54.3248 62.4948 53.7133 63.9737 54.0341 65.4228C54.2797 66.5382 55.1067 67.6039 56.3046 67.7433V67.7483Z" fill="black"/>
<path d="M57.2108 47.0582C57.2108 47.0582 60.3735 46.5802 61.5363 46.4358C61.6064 46.4258 61.6114 46.3312 61.5413 46.3063C60.5639 46.0025 59.9023 45.0564 59.6818 44.0754C59.371 42.6662 59.9424 41.2271 60.4687 39.9374C60.4887 39.8876 60.4486 39.8378 60.3985 39.8477C59.6718 39.9573 55.7723 40.4901 55.7723 40.4901C55.231 41.8097 54.6195 43.2886 54.9403 44.7377C55.1859 45.8532 56.0129 46.9188 57.2108 47.0582Z" fill="black"/>
<path d="M56.7342 57.3958C56.7342 57.3958 59.8568 56.9227 61.0397 56.7783C61.1148 56.7684 61.1198 56.6638 61.0497 56.6389C60.0873 56.3252 59.4258 55.389 59.2102 54.413C58.8945 52.9988 59.4709 51.5597 60.0021 50.265C60.0222 50.2202 59.9821 50.1753 59.937 50.1803C59.2353 50.2849 55.2958 50.8227 55.2958 50.8227C54.7545 52.1423 54.143 53.6212 54.4638 55.0703C54.7094 56.1857 55.5364 57.2514 56.7342 57.3908V57.3958Z" fill="black"/>
<path d="M57.8202 36.7751C57.8202 36.7751 60.9678 36.302 62.1406 36.1526C62.2158 36.1427 62.2208 36.0431 62.1456 36.0232C61.1733 35.7144 60.5117 34.7733 60.2912 33.7923C59.9804 32.3781 60.5518 30.939 61.0831 29.6492C61.1031 29.6044 61.063 29.5596 61.0179 29.5646C60.3112 29.6741 56.3817 30.207 56.3817 30.207C55.8404 31.5266 55.2289 33.0055 55.5497 34.4546C55.7953 35.57 56.6223 36.6357 57.8202 36.7751Z" fill="black"/>
</svg>
