<svg width="116" height="96" viewBox="0 0 116 96" fill="none" xmlns="http://www.w3.org/2000/svg">
<path d="M82.0614 76.6562H96.4861C100.115 76.6562 103.49 75.5519 106.287 73.6424C110.888 70.5135 113.893 65.268 113.893 59.3324C113.893 49.7617 106.102 42.0085 96.4861 42.0085H36.1523C36.1523 29.2859 46.5316 18.9561 59.3149 18.9561C67.267 18.9561 74.2943 22.9362 78.4553 29.0329" stroke="black" stroke-width="3" stroke-miterlimit="10" stroke-linecap="round"/>
<path d="M19.2448 45.0218V62.5297C19.2448 64.0251 18.69 65.3825 17.7422 66.5328C16.1934 68.3963 13.5813 69.6387 10.6224 69.6387C5.86043 69.6387 2 66.4638 2 62.5297V32.7363" stroke="black" stroke-width="3" stroke-miterlimit="10" stroke-linecap="round"/>
<path d="M36.1481 42.0082L36.4948 62.53C36.4948 64.0254 35.94 65.3828 34.9922 66.5331C33.4434 68.3966 30.8313 69.639 27.8724 69.639C23.1104 69.639 19.25 66.4641 19.25 62.53V41.8702C19.25 19.853 37.1883 2 59.3107 2C73.0649 2 85.201 8.90193 92.4133 19.4159C96.8054 25.8117 99.3713 33.5418 99.3713 41.8702" stroke="black" stroke-width="3" stroke-miterlimit="10" stroke-linecap="round"/>
<path d="M99.3667 93.9796H83.5551C73.9387 93.9796 66.1484 86.2264 66.1484 76.6557C66.1484 70.6971 69.1536 65.4516 73.7537 62.3457C76.5508 60.4362 79.9258 59.3319 83.5551 59.3319H99.4129V42.6062" stroke="black" stroke-width="3" stroke-miterlimit="10" stroke-linecap="round"/>
</svg>
